<?xml version="1.0" encoding="UTF-8" standalone="no"?>
<!-- Created with Inkscape (http://www.inkscape.org/) -->
<svg width="67.73333" height="67.73333" viewBox="0 0 67.73333 67.73333" version="1.1" id="svg1" xml:space="preserve" inkscape:version="1.3.2 (091e20ef0f, 2023-11-25, custom)" sodipodi:docname="blujai831-logo-salvaged.svg" inkscape:export-filename="blujai831-logo-salvaged.png" inkscape:export-xdpi="566.92914" inkscape:export-ydpi="566.92914" xmlns:inkscape="http://www.inkscape.org/namespaces/inkscape" xmlns:sodipodi="http://sodipodi.sourceforge.net/DTD/sodipodi-0.dtd" xmlns="http://www.w3.org/2000/svg" xmlns:svg="http://www.w3.org/2000/svg"><sodipodi:namedview id="namedview1" pagecolor="#505050" bordercolor="#ffffff" borderopacity="1" inkscape:showpageshadow="0" inkscape:pageopacity="0" inkscape:pagecheckerboard="1" inkscape:deskcolor="#d1d1d1" inkscape:document-units="px" inkscape:zoom="5.7941077" inkscape:cx="19.157393" inkscape:cy="40.64474" inkscape:window-width="1916" inkscape:window-height="1017" inkscape:window-x="0" inkscape:window-y="24" inkscape:window-maximized="1" inkscape:current-layer="layer1" showgrid="false"/><defs id="defs1"/><g inkscape:label="Layer 1" inkscape:groupmode="layer" id="layer1"><circle style="opacity:1;fill:#1a1a1a;fill-opacity:0.963873;stroke-width:1.00157" id="path5" cx="33.866665" cy="33.866665" r="33.866665"/><path id="path1-6" style="fill:#000080;fill-opacity:0.963873;stroke-width:1.00157" d="m 35.218061,12.034302 c -2.647574,0.02029 -3.835937,1.181641 -3.835937,1.18164 0,0 -1.943866,-1.383262 -9.13086,-1.113281 -7.18699,0.269985 -12.229368,2.496387 -11.970705,4.785157 0.258663,2.288766 5.091799,3.919921 5.091799,3.919921 l 5.667969,-1.945312 c 0,0 -1.414479,-0.680361 -2.095703,-0.984375 -0.681229,-0.304014 -1.355469,-1.265625 -1.355469,-1.265625 0,0 -1.449206,-0.72811 2.910156,-2.470703 4.359366,-1.742597 9.72461,0.382812 9.72461,0.382812 0,0 -0.688709,-0.437026 -0.294922,2.017578 0.393783,2.454607 1.40625,2.710938 1.40625,2.710938 0,0 -1.037098,-0.423335 -2.259766,-0.359375 -1.222667,0.06396 -3.050781,0.353515 -3.050781,0.353515 0,0 -6.005158,1.420208 -9.332031,8.400391 -3.326877,6.980182 1.515625,11.433594 1.515625,11.433594 l -0.699219,-0.326172 -0.683594,0.429687 3.46875,2.6875 -9.722657,11.632813 3.804688,2.460937 c 0,1e-6 -0.569792,-0.806228 2.951172,-1.285156 3.520968,-0.478925 6.859375,2.041016 6.859375,2.041016 l 0.720703,-2.144531 c 0,0 -1.023785,-0.860794 -4.013671,-1.91211 -2.989891,-1.051316 -4.279297,-0.263672 -4.279297,-0.263672 l 5.589843,-9.230468 4.507813,3.216797 -0.03125,-1.166016 -1.089844,-0.644531 4.283203,0.839843 c 0,0 7.526831,1.000179 11.785156,-8.091796 4.258329,-9.091979 -2.658203,-14.337891 -2.658203,-14.337891 0,0 2.262825,0.84149 4.791016,-0.585938 2.528191,-1.427423 1.900391,-3.755859 1.900391,-3.755859 0,0 3.13429,0.776478 5.33789,1.367188 2.203601,0.590706 7.339214,3.370293 5.982422,6.697265 -1.356791,3.326971 -11.470703,0.111328 -11.470703,0.111328 l -0.433594,5.064453 c 0,0 -0.08101,0.958988 8.044922,1.886719 8.125931,0.927731 10.679688,-2.515625 10.679688,-2.515625 0,0 1.795026,-4.327 -4.185547,-8.929687 -5.980573,-4.602691 -14.650391,-5.373047 -14.650391,-5.373047 0,0 0.622146,-1.852609 -5.238281,-4.023438 -1.831383,-0.678383 -3.337572,-0.905708 -4.541016,-0.896484 z m 1.150391,1.583984 c 0.634413,-0.0089 1.482568,0.09851 2.595703,0.44336 3.238212,1.003205 3.324219,2.736328 3.324219,2.736328 0,0 -1.992573,-0.1 -2.921875,0.18164 -0.929302,0.28164 -1.455078,0.876953 -1.455078,0.876954 0,0 0.643033,-0.980105 -0.691407,-2.134766 -1.334436,-1.154661 -2.49414,-1.648437 -2.49414,-1.648438 0,0 0.431423,-0.438148 1.642578,-0.455078 z m -3.099609,1.998047 c 0.210609,-0.0036 0.788935,0.09885 0.966796,1.285156 0.218907,1.460076 -0.308593,1.689454 -0.308593,1.689453 0,0 -0.909286,-0.720242 -1.06836,-1.521484 -0.159074,-0.801242 0.332032,-1.445312 0.332031,-1.445312 0,0 0.02952,-0.007 0.07813,-0.0078 z m 8.726562,2.980469 c 0.152271,-0.0016 0.232422,0.01367 0.232422,0.01367 0,0 -0.280123,1.371368 -1.585938,2.015625 -1.305812,0.644255 -2.443359,0.222656 -2.443359,0.222656 0,0 0.410768,-0.886104 1.8125,-1.642578 0.96369,-0.520077 1.64938,-0.605794 1.984375,-0.609375 z m -11.376953,2.738281 c 1.834745,-0.01743 3.245273,0.757691 4.017578,1.09375 1.647584,0.716922 7.081923,4.139247 2.712891,10.789063 -4.369036,6.649813 -8.790951,4.545439 -11.470704,3.351562 -2.679749,-1.193878 -5.822131,-5.50759 -2.824218,-10.332031 2.860437,-3.845991 5.485075,-4.882585 7.564453,-4.902344 z"/><path id="path1" style="opacity:1;fill:#0000ff;fill-opacity:0.963873;stroke-width:1.00157" d="M 34.441406 10.826172 C 31.793832 10.846465 30.605469 12.007813 30.605469 12.007812 C 30.605469 12.007812 28.661603 10.62455 21.474609 10.894531 C 14.287619 11.164516 9.2452449 13.390918 9.5039062 15.679688 C 9.7625679 17.968454 14.595703 19.599609 14.595703 19.599609 L 20.263672 17.654297 C 20.263672 17.654297 18.849193 16.973936 18.167969 16.669922 C 17.48674 16.365908 16.8125 15.404297 16.8125 15.404297 C 16.8125 15.404297 15.363294 14.676187 19.722656 12.933594 C 24.082022 11.190997 29.447266 13.316406 29.447266 13.316406 C 29.447266 13.316406 28.758557 12.87938 29.152344 15.333984 C 29.546127 17.788591 30.558594 18.044922 30.558594 18.044922 C 30.558594 18.044922 29.521496 17.621587 28.298828 17.685547 C 27.076161 17.74951 25.248047 18.039062 25.248047 18.039062 C 25.248047 18.039062 19.242889 19.45927 15.916016 26.439453 C 12.589139 33.419635 17.431641 37.873047 17.431641 37.873047 L 16.732422 37.546875 L 16.048828 37.976562 L 19.517578 40.664062 L 9.7949219 52.296875 L 13.599609 54.757812 C 13.599609 54.757813 13.029817 53.951584 16.550781 53.472656 C 20.071749 52.993731 23.410156 55.513672 23.410156 55.513672 L 24.130859 53.369141 C 24.130859 53.369141 23.107074 52.508347 20.117188 51.457031 C 17.127297 50.405715 15.837891 51.193359 15.837891 51.193359 L 21.427734 41.962891 L 25.935547 45.179688 L 25.904297 44.013672 L 24.814453 43.369141 L 29.097656 44.208984 C 29.097656 44.208984 36.624487 45.209163 40.882812 36.117188 C 45.141141 27.025209 38.224609 21.779297 38.224609 21.779297 C 38.224609 21.779297 40.487434 22.620787 43.015625 21.193359 C 45.543816 19.765936 44.916016 17.4375 44.916016 17.4375 C 44.916016 17.4375 48.050306 18.213978 50.253906 18.804688 C 52.457507 19.395394 57.59312 22.174981 56.236328 25.501953 C 54.879537 28.828924 44.765625 25.613281 44.765625 25.613281 L 44.332031 30.677734 C 44.332031 30.677734 44.251022 31.636722 52.376953 32.564453 C 60.502884 33.492184 63.056641 30.048828 63.056641 30.048828 C 63.056641 30.048828 64.851667 25.721828 58.871094 21.119141 C 52.890521 16.51645 44.220703 15.746094 44.220703 15.746094 C 44.220703 15.746094 44.842849 13.893485 38.982422 11.722656 C 37.151039 11.044273 35.64485 10.816948 34.441406 10.826172 z M 35.591797 12.410156 C 36.22621 12.401288 37.074365 12.508663 38.1875 12.853516 C 41.425712 13.856721 41.511719 15.589844 41.511719 15.589844 C 41.511719 15.589844 39.519146 15.489847 38.589844 15.771484 C 37.660542 16.053124 37.134766 16.648437 37.134766 16.648438 C 37.134766 16.648438 37.777799 15.668333 36.443359 14.513672 C 35.108923 13.359011 33.949219 12.865235 33.949219 12.865234 C 33.949219 12.865234 34.380642 12.427086 35.591797 12.410156 z M 32.492188 14.408203 C 32.702797 14.404651 33.281123 14.507049 33.458984 15.693359 C 33.677891 17.153435 33.150391 17.382813 33.150391 17.382812 C 33.150391 17.382812 32.241105 16.66257 32.082031 15.861328 C 31.922957 15.060086 32.414063 14.416016 32.414062 14.416016 C 32.414062 14.416016 32.443585 14.409023 32.492188 14.408203 z M 41.21875 17.388672 C 41.371021 17.387044 41.451172 17.402344 41.451172 17.402344 C 41.451172 17.402344 41.171049 18.773712 39.865234 19.417969 C 38.559422 20.062224 37.421875 19.640625 37.421875 19.640625 C 37.421875 19.640625 37.832643 18.754521 39.234375 17.998047 C 40.198065 17.47797 40.883755 17.392253 41.21875 17.388672 z M 29.841797 20.126953 C 31.676542 20.109519 33.08707 20.884644 33.859375 21.220703 C 35.506959 21.937625 40.941298 25.35995 36.572266 32.009766 C 32.20323 38.659579 27.781315 36.555205 25.101562 35.361328 C 22.421813 34.16745 19.279431 29.853738 22.277344 25.029297 C 25.137781 21.183306 27.762419 20.146712 29.841797 20.126953 z "/></g></svg>